<?xml version="1.0" encoding="utf-8"?>
<!-- Generator: Adobe Illustrator 22.1.0, SVG Export Plug-In . SVG Version: 6.00 Build 0)  -->
<svg version="1.1" id="Layer_1" xmlns="http://www.w3.org/2000/svg" xmlns:xlink="http://www.w3.org/1999/xlink" x="0px" y="0px"
	 viewBox="0 0 827.8 616.6" style="enable-background:new 0 0 827.8 616.6;" xml:space="preserve">
<style type="text/css">
	.st0{fill:none;stroke:#000000;stroke-width:3;stroke-miterlimit:10;}
	.st1{fill:none;}
</style>
<g id="design-freepik">
 
  <path fill="#FFFFFF" stroke="#000000" stroke-width="1.6368" stroke-miterlimit="10" d="M576.2,460.7c0,0,21.1,1.2,41.4-46c1.8-4.1,33.1-24.7,47.9-25.3c0,0-2.2,10.5-9.1,18.2
	c-7.1,8-17.5,21.3-20.3,37.2c-1.2,11.5,8.2,20.6,9.8,34.6c1.3,11.9-10.7,21.1-13.3,28.1c-13.5,27.2-4.4,59-0.9,64.3
	c0.1,0.1-0.1,0.3-0.2,0.2c-4.3-4.1-22.5-21.9-33.9-41c-7-11.7-19.5-18.4-23-19.1C580.8,492,584.4,478.8,576.2,460.7z"/>


  </g>
<g id="ëÎÓÈ_2">
</g>
</svg>
