<?xml version="1.0" encoding="utf-8"?>
<!-- Generator: Adobe Illustrator 22.1.0, SVG Export Plug-In . SVG Version: 6.00 Build 0)  -->
<svg version="1.1" id="Layer_1" xmlns="http://www.w3.org/2000/svg" xmlns:xlink="http://www.w3.org/1999/xlink" x="0px" y="0px"
	 viewBox="0 0 827.8 616.6" style="enable-background:new 0 0 827.8 616.6;" xml:space="preserve">
<style type="text/css">
	.st0{fill:none;stroke:#000000;stroke-width:3;stroke-miterlimit:10;}
	.st1{fill:none;}
</style>
<g id="design-freepik">
  <path fill="#FFFFFF" stroke="#000000" stroke-width="1.6368" stroke-miterlimit="10" d="M325.4,147.3c0,0,29.3,0.7,52.7,97.3c3.3,8.7,10,40,23.3,40c6,11.3,6.7,54-5.3,54c-9.3,4.7-47.7,86-74.3,94.7
	c16-30.7,14.3-40.7,13.7-71.3c-0.3-12.4,18.7-30.7,8.8-57.6c-5.4-14.9,5.3-38.2,5.7-42.7c1.5-15.6-16.2-30.4-11.1-46.6
	C349.5,181,325.4,147.3,325.4,147.3z"/>
  <path fill="#FFFFFF" stroke="#000000" stroke-width="1.6368" stroke-miterlimit="10" d="M401,286.3c0,0,21.1,1.2,41.4-46c1.8-4.1,33.1-24.7,47.9-25.3c0,0-2.2,10.5-9.1,18.2
    c-7.1,8-17.5,21.3-20.3,37.2c-1.2,11.5,8.2,20.6,9.8,34.6c1.3,11.9-10.7,21.1-13.3,28.1c-13.5,27.2-4.4,59-0.9,64.3
    c0.1,0.1-0.1,0.3-0.2,0.2c-4.3-4.1-22.5-21.9-33.9-41c-7-11.7-19.5-18.4-23-19.1C405.6,317.6,409.1,304.4,401,286.3z"/>
  <path fill="#FFFFFF" stroke="#000000" stroke-width="1.6368" stroke-miterlimit="10" d="M427.4,357.3"/>
  <path fill="#FFFFFF" stroke="#000000" stroke-width="1.6368" stroke-miterlimit="10" d="M490.3,215c0,0,61.1-4,79.1,17.5c-1.5,8-16.5,47.5-16.5,47.5s-45.6-8.5-83.6,34c3.1-16.3-9.5-28.8-8.4-43.6
    C463.1,244.3,480.8,245,490.3,215z"/>
  <path fill="#FFFFFF" stroke="#000000" stroke-width="1.6368" stroke-miterlimit="10" d="M469.4,316.9c0,0,40.7-4.3,61.4,10.7c4.3-8.3,22.2-47.7,22.2-47.7S505,275.9,469.4,316.9z"/>
  <path fill="#FFFFFF" stroke="#000000" stroke-width="1.6368" stroke-miterlimit="10" d="M459.1,400.6c0,0-27.5-32.4,10.3-83.7c16-0.6,40.4-4,61.4,10.7c-6.3,34.3-12.3,71.3,6.7,95.3
    C515.8,423.3,480.4,420.6,459.1,400.6z"/>
  <path fill="#FFFFFF" stroke="#000000" stroke-width="1.6368" stroke-miterlimit="10" d="M569.4,232.5c0,0,54.3,20.2,81,69.8c5.7,5,12.7,10,12.7,11.6s-12.3,35.7-20.3,44.4c-6-9.3-9-17.7-9-17.7
    s-8,20.3-32.3,22.3c-12.5-5.9-13-19.4-17.6-45.4c-1.2-6.9-3.8-18.1-9.1-22.6c-8.8-7.4-21.8-15-21.8-15L569.4,232.5z"/>
  <path fill="#FFFFFF" stroke="#000000" stroke-width="1.6368" stroke-miterlimit="10" d="M537.4,423c0,0,37.3-5.3,58-23c-10-19.3-30-54-64.7-72.3C527.1,348.8,515.1,395,537.4,423z"/>
  <path fill="#FFFFFF" stroke="#000000" stroke-width="1.6368" stroke-miterlimit="10" d="M642.8,358.3c0,0-32,36.7-47.3,41.7c-9.3-16.7-36.2-61.7-64.7-72.3c8.8-18.5,22.2-47.7,22.2-47.7
    s14.9,5.8,21.8,15c3.8,5.1,7.8,15.8,9.1,22.6c2.9,16.1,3.6,36.1,10.9,41.4c7.3,5.3,27.7,6.3,39.3-19
    C637.8,348.3,642.8,358.3,642.8,358.3z"/>
  <path fill="#FFFFFF" stroke="#000000" stroke-width="1.6368" stroke-miterlimit="10" d="M629.4,291.5c0,10.6-10.1,19.2-16,19.2c-5.9,0-16-8.6-16-19.2s10.1-17.5,16-17.5
    C619.3,274,629.4,280.9,629.4,291.5z"/>
  <path fill="#FFFFFF" stroke="#000000" stroke-width="1.6368" stroke-miterlimit="10" d="M620.1,291.6c0,4.2-2.7,7.7-6,7.7s-8-3.4-8-7.7s3.7-7.7,7-7.7S620.1,287.4,620.1,291.6z"/>
</g>
<g id="ëÎÓÈ_2">
</g>
</svg>
